<svg width="229" height="121" viewBox="0 0 229 121" fill="none" xmlns="http://www.w3.org/2000/svg">
<path d="M88.732 73.395C83.2201 82.2357 74.9815 89.0431 65.2602 92.7894C55.5388 96.5356 44.8625 97.0173 34.8433 94.1617C24.8241 91.3061 16.006 85.2682 9.72036 76.9598C3.43476 68.6513 0.0229579 58.5234 0.000115375 48.1052C-0.0227271 37.6871 3.34463 27.5443 9.59374 19.2083C15.8429 10.8724 24.6344 4.79596 34.641 1.89645C44.6476 -1.00307 55.3259 -0.5682 65.0636 3.13539C74.8013 6.83897 83.0696 13.6102 88.6202 22.4267L68.7669 34.9258C65.9292 30.4184 61.702 26.9567 56.7237 25.0632C51.7453 23.1698 46.2861 22.9475 41.1703 24.4298C36.0545 25.9122 31.5598 29.0187 28.365 33.2804C25.1702 37.5421 23.4487 42.7276 23.4603 48.0538C23.472 53.38 25.2163 58.5579 28.4298 62.8055C31.6432 67.0532 36.1515 70.14 41.2737 71.5999C46.396 73.0598 51.8542 72.8135 56.8242 70.8983C61.7941 68.983 66.0061 65.5028 68.824 60.983L88.732 73.395Z" fill="#F9B609"/>
<path d="M102.504 73V57.35L97.0039 36.25H102.304L104.954 48L105.129 49.6H105.279L105.454 48L108.104 36.25H113.404L107.904 57.35V73H102.504ZM131.374 75.8C129.857 75.8 128.624 75.475 127.674 74.825C126.724 74.175 126.007 73.4667 125.524 72.7C125.274 72.8833 124.899 73.0417 124.399 73.175C123.915 73.325 123.407 73.4 122.874 73.4C121.34 73.4 120.057 73.05 119.024 72.35C117.99 71.65 117.215 70.7 116.699 69.5C116.182 68.3 115.924 66.95 115.924 65.45V43.8C115.924 42.3 116.207 40.95 116.774 39.75C117.357 38.55 118.19 37.6 119.274 36.9C120.357 36.2 121.64 35.85 123.124 35.85C124.624 35.85 125.907 36.2 126.974 36.9C128.057 37.6 128.882 38.55 129.449 39.75C130.032 40.95 130.324 42.3 130.324 43.8V65.45C130.324 66.4333 130.19 67.3417 129.924 68.175C129.674 68.9917 129.382 69.6 129.049 70C129.265 70.35 129.574 70.625 129.974 70.825C130.374 71.025 130.84 71.15 131.374 71.2V75.8ZM123.124 68.15C123.79 68.15 124.257 67.8833 124.524 67.35C124.79 66.8 124.924 66.1667 124.924 65.45V43.8C124.924 43.1167 124.79 42.5 124.524 41.95C124.257 41.3833 123.79 41.1 123.124 41.1C122.474 41.1 122.007 41.3833 121.724 41.95C121.457 42.5 121.324 43.1167 121.324 43.8V65.45C121.324 66.1667 121.465 66.8 121.749 67.35C122.032 67.8833 122.49 68.15 123.124 68.15ZM141.294 73.4C139.777 73.4 138.477 73.05 137.394 72.35C136.327 71.65 135.51 70.7 134.944 69.5C134.377 68.3 134.094 66.95 134.094 65.45V36.25H139.494V65.45C139.494 66.1667 139.635 66.8 139.919 67.35C140.202 67.8833 140.66 68.15 141.294 68.15C141.96 68.15 142.427 67.8833 142.694 67.35C142.96 66.8 143.094 66.1667 143.094 65.45V36.25H148.494V65.45C148.494 66.95 148.202 68.3 147.619 69.5C147.052 70.7 146.227 71.65 145.144 72.35C144.077 73.05 142.794 73.4 141.294 73.4ZM152.502 73V36.25H157.902V73H152.502ZM160.676 73V67.2L169.126 41.6H161.876V36.25H174.976V41.6L166.376 67.65H174.976V73H160.676Z" fill="white"/>
</svg>
